<svg xmlns="http://www.w3.org/2000/svg" enable-background="new 0 0 24 24" viewBox="0 0 24 24"><path d="M12,19.5c-6.617,0-12-3.364-12-7.5s5.383-7.5,12-7.5S24,7.864,24,12S18.617,19.5,12,19.5z M12,5.5C5.935,5.5,1,8.416,1,12s4.935,6.5,11,6.5s11-2.916,11-6.5S18.065,5.5,12,5.5z"/><path d="M12,11.5c-4.561,0-8-1.505-8-3.5s3.439-3.5,8-3.5s8,1.505,8,3.5S16.561,11.5,12,11.5z M12,5.5C7.875,5.5,5,6.817,5,8s2.875,2.5,7,2.5s7-1.317,7-2.5S16.125,5.5,12,5.5z"/><path d="M12,19.5c-1.995,0-3.5-3.224-3.5-7.5s1.505-7.5,3.5-7.5s3.5,3.224,3.5,7.5S13.995,19.5,12,19.5z M12,5.5c-1.183,0-2.5,2.669-2.5,6.5s1.317,6.5,2.5,6.5s2.5-2.669,2.5-6.5S13.183,5.5,12,5.5z"/></svg>